<svg width="80" height="40" viewBox="0 0 80 40" fill="none" xmlns="http://www.w3.org/2000/svg">
<rect width="80" height="40" rx="3" fill="#FFD800"/>
<path d="M18.072 25.766H31.995V26.939H18.072V25.766ZM24.294 22.468H25.705V26.259H24.294V22.468ZM19.755 14.597H30.278V19.255H21.2V22.332H19.806V18.116H28.884V15.736H19.755V14.597ZM19.806 21.737H30.635V22.893H19.806V21.737ZM34.5267 15.09H44.4207V16.229H34.5267V15.09ZM33.0307 25.409H46.9197V26.582H33.0307V25.409ZM43.6727 15.09H45.0497V16.62C45.0497 18.592 45.0497 20.785 44.4717 24.1L43.0607 23.964C43.6727 20.819 43.6727 18.524 43.6727 16.62V15.09ZM59.1583 13.475H60.5863V24.695H59.1583V13.475ZM50.7093 27.33H61.0453V28.486H50.7093V27.33ZM50.7093 23.539H52.1033V27.721H50.7093V23.539ZM52.3413 14.529C54.6363 14.529 56.3363 16.093 56.3363 18.32C56.3363 20.53 54.6363 22.111 52.3413 22.111C50.0463 22.111 48.3293 20.53 48.3293 18.32C48.3293 16.093 50.0463 14.529 52.3413 14.529ZM52.3413 15.753C50.8453 15.753 49.7063 16.807 49.7063 18.32C49.7063 19.816 50.8453 20.87 52.3413 20.87C53.8373 20.87 54.9763 19.816 54.9763 18.32C54.9763 16.807 53.8373 15.753 52.3413 15.753Z" fill="black"/>
</svg>
